<?xml version="1.0" encoding="UTF-8" standalone="no"?>
<svg
   xmlns:dc="http://purl.org/dc/elements/1.1/"
   xmlns:cc="http://creativecommons.org/ns#"
   xmlns:rdf="http://www.w3.org/1999/02/22-rdf-syntax-ns#"
   xmlns:svg="http://www.w3.org/2000/svg"
   xmlns="http://www.w3.org/2000/svg"
   xmlns:xlink="http://www.w3.org/1999/xlink"
   xmlns:sodipodi="http://sodipodi.sourceforge.net/DTD/sodipodi-0.dtd"
   xmlns:inkscape="http://www.inkscape.org/namespaces/inkscape"
   width="297mm"
   height="210mm"
   viewBox="0 0 297 210.00001"
   version="1.1"
   id="svg8"
   inkscape:version="1.0.1 (3bc2e81, 2020-09-07)"
   sodipodi:docname="cardanodevs-cert.svg"
   inkscape:export-filename=""
   inkscape:export-xdpi="300"
   inkscape:export-ydpi="300">
  <defs
     id="defs2">
    <rect
       x="121.29146"
       y="163.19339"
       width="152.9023"
       height="28.409787"
       id="rect2318" />
    <rect
       x="190.70937"
       y="166.82867"
       width="92.886154"
       height="15.658635"
       id="rect2259" />
    <rect
       x="145.15517"
       y="135.12497"
       width="118.38777"
       height="26.075705"
       id="rect2189" />
    <rect
       x="170.11276"
       y="200.87206"
       width="148.24275"
       height="51.711384"
       id="rect167" />
    <linearGradient
       id="linearGradient1311"
       inkscape:collect="always">
      <stop
         id="stop1307"
         offset="0"
         style="stop-color:#66bb6a;stop-opacity:1;" />
      <stop
         id="stop1309"
         offset="1"
         style="stop-color:#9ccc65;stop-opacity:1" />
    </linearGradient>
    <linearGradient
       id="linearGradient1292"
       inkscape:collect="always">
      <stop
         id="stop1288"
         offset="0"
         style="stop-color:#0d47a1;stop-opacity:1" />
      <stop
         id="stop1290"
         offset="1"
         style="stop-color:#1a237e;stop-opacity:1" />
    </linearGradient>
    <linearGradient
       id="linearGradient897"
       inkscape:collect="always">
      <stop
         id="stop893"
         offset="0"
         style="stop-color:#66bb6a;stop-opacity:1;" />
      <stop
         id="stop895"
         offset="1"
         style="stop-color:#4caf50;stop-opacity:1" />
    </linearGradient>
    <linearGradient
       id="linearGradient859"
       inkscape:collect="always">
      <stop
         id="stop875"
         offset="0"
         style="stop-color:#263238;stop-opacity:1" />
      <stop
         id="stop877"
         offset="1"
         style="stop-color:#1a237e;stop-opacity:1" />
    </linearGradient>
    <rect
       id="rect2742"
       height="14.517308"
       width="55.384949"
       y="65.011902"
       x="31.75" />
    <rect
       id="rect2750"
       height="40.82143"
       width="110.36905"
       y="65.011902"
       x="31.75" />
    <rect
       id="rect2756"
       height="40.82143"
       width="110.36905"
       y="65.011902"
       x="31.75" />
    <rect
       id="rect2764"
       height="21.922621"
       width="15.875002"
       y="65.011902"
       x="31.75" />
    <rect
       id="rect2770"
       height="19.176723"
       width="92.071465"
       y="65.011902"
       x="31.75" />
    <linearGradient
       gradientTransform="matrix(0.91794837,0,0,0.99235987,11.723128,0.43612715)"
       gradientUnits="userSpaceOnUse"
       y2="221.26755"
       x2="142.13049"
       y1="93.302925"
       x1="46.5495"
       id="linearGradient899"
       xlink:href="#linearGradient897"
       inkscape:collect="always" />
    <clipPath
       id="clipPath920"
       clipPathUnits="userSpaceOnUse">
      <rect
         inkscape:label="bg"
         ry="1.5119112"
         y="36.356754"
         x="13.365082"
         height="285.75"
         width="285.75"
         id="rect922"
         style="opacity:1;fill:#4caf50;fill-opacity:1;stroke-width:0.373999" />
    </clipPath>
    <linearGradient
       gradientTransform="matrix(0.11050174,0,0,0.18982179,-3.9530201,30.771036)"
       gradientUnits="userSpaceOnUse"
       y2="271.16437"
       x2="-24.81719"
       y1="-27.836531"
       x1="457.38504"
       id="linearGradient930"
       xlink:href="#linearGradient859"
       inkscape:collect="always" />
    <filter
       id="filter1271"
       inkscape:label="Drop Shadow"
       style="color-interpolation-filters:sRGB">
      <feFlood
         id="feFlood1261"
         result="flood"
         flood-color="rgb(0,0,0)"
         flood-opacity="0.141176" />
      <feComposite
         id="feComposite1263"
         result="composite1"
         operator="in"
         in2="SourceGraphic"
         in="flood" />
      <feGaussianBlur
         id="feGaussianBlur1265"
         result="blur"
         stdDeviation="6"
         in="composite1" />
      <feOffset
         id="feOffset1267"
         result="offset"
         dy="0"
         dx="6" />
      <feComposite
         id="feComposite1269"
         result="composite2"
         operator="out"
         in2="SourceGraphic"
         in="offset" />
    </filter>
    <filter
       id="filter1286"
       inkscape:label="Drop Shadow"
       style="color-interpolation-filters:sRGB">
      <feFlood
         id="feFlood1276"
         result="flood"
         flood-color="rgb(0,0,0)"
         flood-opacity="0.141176" />
      <feComposite
         id="feComposite1278"
         result="composite1"
         operator="in"
         in2="SourceGraphic"
         in="flood" />
      <feGaussianBlur
         id="feGaussianBlur1280"
         result="blur"
         stdDeviation="6"
         in="composite1" />
      <feOffset
         id="feOffset1282"
         result="offset"
         dy="0"
         dx="6" />
      <feComposite
         id="feComposite1284"
         result="composite2"
         operator="out"
         in2="SourceGraphic"
         in="offset" />
    </filter>
    <linearGradient
       gradientTransform="matrix(0.17473576,0,0,0.15818485,-16.541361,-235.63594)"
       gradientUnits="userSpaceOnUse"
       y2="-279.81003"
       x2="-239.99843"
       y1="-90.814529"
       x1="59.666885"
       id="linearGradient1294"
       xlink:href="#linearGradient1292"
       inkscape:collect="always" />
    <linearGradient
       y2="225.62195"
       x2="109.39279"
       y1="112.30395"
       x1="69.658463"
       gradientTransform="matrix(0.17029731,0,0,0.1841021,233.90537,5.5482681)"
       gradientUnits="userSpaceOnUse"
       id="linearGradient1305"
       xlink:href="#linearGradient1311"
       inkscape:collect="always" />
    <rect
       id="rect2109"
       height="51.711384"
       width="148.24275"
       y="200.87206"
       x="170.11276" />
    <linearGradient
       inkscape:collect="always"
       xlink:href="#linearGradient859"
       id="linearGradient3116"
       x1="199.11108"
       y1="172.81166"
       x2="275.19772"
       y2="172.81166"
       gradientUnits="userSpaceOnUse" />
    <rect
       x="190.70937"
       y="166.82867"
       width="751.26487"
       height="232.31431"
       id="rect2198" />
    <linearGradient
       inkscape:collect="always"
       xlink:href="#linearGradient859"
       id="linearGradient2200"
       gradientUnits="userSpaceOnUse"
       x1="199.11108"
       y1="172.81166"
       x2="275.19772"
       y2="172.81166" />
    <rect
       x="121.29146"
       y="163.19339"
       width="152.9023"
       height="28.409787"
       id="rect2326" />
    <rect
       x="121.29146"
       y="163.19339"
       width="152.9023"
       height="28.409787"
       id="rect2450" />
    <linearGradient
       inkscape:collect="always"
       xlink:href="#linearGradient859"
       id="linearGradient3367"
       gradientUnits="userSpaceOnUse"
       x1="208.72495"
       y1="234.0871"
       x2="64.155991"
       y2="12.039217" />
    <linearGradient
       inkscape:collect="always"
       xlink:href="#linearGradient859"
       id="linearGradient3375"
       gradientUnits="userSpaceOnUse"
       gradientTransform="matrix(0.11050174,0,0,0.18982179,-60.687919,30.637648)"
       x1="457.38504"
       y1="-27.836531"
       x2="-24.81719"
       y2="271.16437" />
    <linearGradient
       inkscape:collect="always"
       xlink:href="#linearGradient859"
       id="linearGradient3409"
       x1="98.005531"
       y1="211.35132"
       x2="14.449715"
       y2="181.97772"
       gradientUnits="userSpaceOnUse"
       gradientTransform="translate(12.436053,-5.291667)" />
    <linearGradient
       inkscape:collect="always"
       xlink:href="#linearGradient859"
       id="linearGradient3413"
       gradientUnits="userSpaceOnUse"
       x1="15.307047"
       y1="178.83369"
       x2="92.707512"
       y2="206.74054"
       gradientTransform="rotate(180,142.71064,109.38988)" />
    <linearGradient
       inkscape:collect="always"
       xlink:href="#linearGradient859"
       id="linearGradient3417"
       gradientUnits="userSpaceOnUse"
       gradientTransform="matrix(0.43952912,0,0,0.4876437,122.62804,-630.31463)"
       x1="457.38504"
       y1="-27.836531"
       x2="-24.81719"
       y2="271.16437" />
    <linearGradient
       inkscape:collect="always"
       xlink:href="#linearGradient859"
       id="linearGradient3421"
       gradientUnits="userSpaceOnUse"
       gradientTransform="matrix(0.43952912,0,0,0.4876437,-356.55337,-524.64536)"
       x1="457.38504"
       y1="-27.836531"
       x2="-24.81719"
       y2="271.16437" />
    <linearGradient
       inkscape:collect="always"
       xlink:href="#linearGradient859"
       id="linearGradient3425"
       gradientUnits="userSpaceOnUse"
       gradientTransform="matrix(0.43952912,0,0,0.4876437,186.35037,-415.00588)"
       x1="457.38504"
       y1="-27.836531"
       x2="-24.81719"
       y2="271.16437" />
    <linearGradient
       inkscape:collect="always"
       xlink:href="#linearGradient859"
       id="linearGradient3429"
       gradientUnits="userSpaceOnUse"
       gradientTransform="matrix(0.0147334,0,0,0.0147334,12.288692,-19.145538)"
       x1="457.38504"
       y1="-27.836531"
       x2="-24.81719"
       y2="271.16437" />
    <linearGradient
       inkscape:collect="always"
       xlink:href="#linearGradient859"
       id="linearGradient3435"
       gradientUnits="userSpaceOnUse"
       gradientTransform="matrix(0.0147334,0,0,0.0147334,18.299169,-15.217377)"
       x1="457.38504"
       y1="-27.836531"
       x2="-24.81719"
       y2="271.16437" />
    <linearGradient
       inkscape:collect="always"
       xlink:href="#linearGradient859"
       id="linearGradient3439"
       gradientUnits="userSpaceOnUse"
       gradientTransform="matrix(0.0147334,0,0,0.0147334,12.288692,-14.671679)"
       x1="457.38504"
       y1="-27.836531"
       x2="-24.81719"
       y2="271.16437" />
    <linearGradient
       inkscape:collect="always"
       xlink:href="#linearGradient859"
       id="linearGradient3445"
       gradientUnits="userSpaceOnUse"
       gradientTransform="matrix(0.0147334,0,0,0.0147334,12.288692,-19.145538)"
       x1="457.38504"
       y1="-27.836531"
       x2="-24.81719"
       y2="271.16437" />
  </defs>
  <sodipodi:namedview
     id="base"
     pagecolor="#ffffff"
     bordercolor="#666666"
     borderopacity="1.0"
     inkscape:pageopacity="0.0"
     inkscape:pageshadow="2"
     inkscape:zoom="0.9899495"
     inkscape:cx="725.29765"
     inkscape:cy="378.55186"
     inkscape:document-units="mm"
     inkscape:current-layer="layer1"
     inkscape:document-rotation="0"
     showgrid="false"
     inkscape:window-width="1920"
     inkscape:window-height="1040"
     inkscape:window-x="768"
     inkscape:window-y="0"
     inkscape:window-maximized="1"
     units="mm"
     inkscape:snap-bbox="true"
     inkscape:bbox-paths="true"
     inkscape:bbox-nodes="true"
     showguides="true"
     inkscape:guide-bbox="true">
    <sodipodi:guide
       position="60.8508,12.99939"
       orientation="0,-1"
       id="guide2409" />
    <sodipodi:guide
       position="270.11424,104.42854"
       orientation="1,0"
       id="guide2411" />
    <sodipodi:guide
       position="26.885769,125.33114"
       orientation="1,0"
       id="guide3453" />
    <sodipodi:guide
       position="270.47156,193.01252"
       orientation="0,-1"
       id="guide3455" />
  </sodipodi:namedview>
  <metadata
     id="metadata5">
    <rdf:RDF>
      <cc:Work
         rdf:about="">
        <dc:format>image/svg+xml</dc:format>
        <dc:type
           rdf:resource="http://purl.org/dc/dcmitype/StillImage" />
        <dc:title />
      </cc:Work>
    </rdf:RDF>
  </metadata>
  <g
     inkscape:label="Layer 1"
     inkscape:groupmode="layer"
     id="layer1">
    <rect
       transform="rotate(90)"
       inkscape:label="bg"
       ry="0"
       y="30.77104"
       x="-3.9530151"
       height="54.241577"
       width="31.575872"
       id="rect901"
       style="display:inline;fill:url(#linearGradient930);fill-opacity:1;stroke-width:0.0541661" />
    <path
       inkscape:label="cardano-logo"
       id="path2786"
       d="m 142.05869,197.40178 c -0.50414,-0.0653 -0.77271,-0.12002 -1.10351,-0.22526 -1.5358,-0.48864 -2.88898,-1.75491 -3.53972,-3.31235 -0.4473,-1.07047 -0.53597,-2.23263 -0.24508,-3.21165 0.057,-0.19195 0.13847,-0.47537 0.18117,-0.62985 0.21674,-0.78644 0.58084,-1.42911 1.15127,-2.03229 0.49499,-0.52334 0.95189,-0.86202 1.5897,-1.17837 1.33442,-0.6619 2.89217,-0.80668 4.21335,-0.39163 0.46167,0.1451 1.5175,0.68605 1.89698,0.97198 0.86685,0.6532 1.44617,1.70511 1.99704,3.62636 0.17702,0.61728 0.18988,0.69108 0.15132,0.86273 -0.0232,0.10322 -0.18842,0.76239 -0.36702,1.46477 l -0.32489,1.27707 -0.2404,0.27116 c -0.42619,0.4807 -1.26132,1.26061 -1.63042,1.52261 -0.67881,0.48183 -1.41533,0.79779 -2.10866,0.90459 -0.38052,0.0586 -1.39838,0.10882 -1.62117,0.0802 z M 94.60825,192.2653 c -1.32891,-0.28847 -2.48694,-1.16528 -3.26821,-2.4746 -0.37178,-0.62305 -0.70207,-1.63218 -0.7104,-2.1705 -0.004,-0.23919 0.16355,-0.6801 0.51212,-1.34944 0.6126,-1.17663 1.60828,-2.17656 2.54346,-2.55429 0.6371,-0.25733 1.46414,-0.34204 2.14691,-0.21989 1.00427,0.17971 1.23318,0.24984 1.73333,0.53119 0.42479,0.23895 1.12049,0.93179 1.386,1.38027 0.51203,0.86494 0.75143,1.84427 0.70103,2.8679 -0.0524,1.0662 -0.43635,1.97078 -1.13235,2.66834 -0.59821,0.59957 -1.59586,1.14266 -2.40626,1.30993 -0.43229,0.0891 -1.1223,0.0943 -1.50563,0.0104 z m 95.90406,-0.25463 c -0.68379,-0.0742 -1.39765,-0.33787 -1.97338,-0.72884 -0.32842,-0.22304 -0.75369,-0.66352 -1.00254,-1.03845 -0.72315,-1.08952 -0.97002,-2.2093 -0.73426,-3.33058 0.18925,-0.90043 0.65535,-1.7259 1.38187,-2.44776 0.66819,-0.66392 1.30702,-1.05709 2.18897,-1.3472 0.45405,-0.14945 0.46982,-0.15153 0.71313,-0.1024 0.36745,0.0744 1.12362,0.33408 1.51282,0.51961 1.57284,0.74979 2.61235,1.89508 2.90351,3.199 0.21234,0.95086 0.0297,2.25852 -0.43045,3.08125 -0.38672,0.69152 -1.04547,1.31522 -1.78329,1.6884 -0.80705,0.4082 -1.88047,0.60418 -2.77638,0.50695 z m -83.56494,-19.22541 c -1.47733,-0.13413 -2.63925,-0.689 -3.73232,-1.7823 -0.87274,-0.87294 -1.68371,-2.13605 -2.20059,-3.42746 -0.17122,-0.42763 -0.18696,-0.70254 -0.087,-1.50825 0.24847,-2.0029 0.95607,-3.65259 2.06008,-4.8028 0.72383,-0.75414 1.43211,-1.1873 2.75609,-1.6855 0.85322,-0.32108 1.98426,-0.43708 2.88332,-0.29575 2.60573,0.40963 4.84935,2.24825 5.64242,4.62387 0.20376,0.61047 0.28207,1.06106 0.30563,1.75966 0.0464,1.37962 -0.15815,2.42243 -0.6782,3.45513 -0.62585,1.24278 -1.8597,2.45107 -3.11634,3.05182 -0.42664,0.20397 -1.15242,0.45491 -1.60595,0.55526 -0.36001,0.0796 -1.61915,0.11151 -2.22706,0.0563 z m 70.38315,-0.13495 c -0.92321,-0.15318 -1.88623,-0.55211 -2.55285,-1.05727 -0.16645,-0.12623 -0.4378,-0.33229 -0.60282,-0.45798 -0.93386,-0.71127 -1.69024,-1.80771 -2.07409,-3.00653 -0.26087,-0.81481 -0.30477,-1.12474 -0.30622,-2.16205 -0.002,-1.01566 0.034,-1.31398 0.23999,-2.02643 0.34614,-1.1966 0.91737,-2.16642 1.75021,-2.97142 0.44494,-0.43003 0.7922,-0.68047 1.49874,-1.08091 1.06307,-0.60249 1.88781,-0.82339 3.07027,-0.82229 1.11678,7.1e-4 2.0598,0.22788 3.09326,0.7441 1.70068,0.84953 2.99071,2.28993 3.54834,3.96192 0.27316,0.81903 0.35918,1.56056 0.30115,2.59629 -0.0419,0.74785 -0.11215,1.16667 -0.28361,1.69143 -0.72825,2.22854 -2.82325,3.99436 -5.37507,4.53049 -0.53014,0.11132 -1.80054,0.14489 -2.3073,0.0607 z m -36.07549,-5.45943 c -0.66758,-0.10467 -1.44807,-0.3537 -2.04537,-0.65277 -0.41509,-0.20782 -1.6008,-1.00134 -2.01274,-1.34696 -1.32941,-1.11539 -2.23578,-2.90436 -2.46257,-4.86051 -0.0635,-0.54594 -0.0651,-1.6463 -0.004,-2.10871 0.36442,-2.72782 1.88981,-5.01722 4.0371,-6.05914 0.43154,-0.20939 1.54129,-0.62185 1.99781,-0.74253 3.6006,-0.95178 7.85321,1.29367 9.27168,4.89563 0.37177,0.94407 0.48256,1.71273 0.45688,3.17002 -0.0214,1.2108 -0.0682,1.54031 -0.33157,2.33685 -0.36709,1.10983 -0.88879,1.95851 -1.74151,2.83306 -1.31763,1.35135 -2.97128,2.21402 -4.81798,2.5134 -0.58561,0.0949 -1.80886,0.10613 -2.34852,0.0215 z M 67.30167,154.02454 c -1.06272,-0.1053 -1.70861,-0.3178 -2.55706,-0.84146 -0.49952,-0.30832 -0.75899,-0.51301 -1.09695,-0.86538 -0.6918,-0.72137 -1.14249,-1.62479 -1.36849,-2.74318 -0.11111,-0.54992 -0.10116,-1.78072 0.0187,-2.33496 0.24002,-1.10807 0.76062,-2.09266 1.47592,-2.79141 0.37148,-0.36287 0.6429,-0.56 1.22973,-0.89315 0.99252,-0.56342 1.66374,-0.75555 2.63906,-0.75532 0.91756,4.5e-4 1.70314,0.19463 2.56297,0.6345 1.82119,0.93155 2.99905,2.60673 3.17544,4.5162 0.0887,0.96029 -0.17246,2.24584 -0.6252,3.07632 -0.80079,1.4692 -2.30445,2.54504 -4.04983,2.8976 -0.39929,0.0806 -1.09839,0.13059 -1.40446,0.10032 z m 150.72458,-0.3371 c -1.78583,-0.17039 -3.3281,-1.06479 -4.19091,-2.43031 -0.17639,-0.27931 -0.6644,-1.34516 -0.76525,-1.67174 -0.20773,-0.67247 -0.27052,-1.64507 -0.14988,-2.32124 0.46558,-2.60973 2.83294,-4.73575 5.26817,-4.73104 2.16451,0.004 2.97283,0.36518 4.75852,2.12537 l 0.79429,0.78292 0.0753,0.62198 c 0.24421,2.0199 0.20967,3.21969 -0.12022,4.17323 -0.22751,0.6578 -0.56304,1.14932 -1.28882,1.88806 -0.66386,0.67572 -1.32799,1.08673 -2.16081,1.33726 -0.68192,0.20522 -1.53056,0.29136 -2.22031,0.22551 z m -91.41656,-7.77031 c -0.0662,-0.008 -0.31898,-0.0332 -0.56175,-0.0569 -0.24279,-0.0237 -0.88382,-0.13099 -1.42454,-0.23849 -1.50123,-0.29836 -2.25972,-0.54681 -3.43087,-1.12385 -2.14709,-1.05788 -3.9602,-2.67776 -5.35843,-4.78739 -0.39735,-0.59955 -0.95575,-1.64444 -1.21546,-2.27441 -0.50216,-1.21819 -0.82815,-2.5346 -0.94894,-3.83214 -0.0531,-0.57125 -0.0526,-1.95822 7.1e-4,-2.54808 0.43991,-4.83342 3.70377,-9.27383 8.24398,-11.21582 0.97387,-0.41657 2.3708,-0.80125 3.59139,-0.98898 0.76155,-0.11712 2.38036,-0.12811 3.17873,-0.0214 3.07842,0.41123 5.86823,1.80185 8.09903,4.03702 1.14758,1.14983 1.92738,2.21804 2.60826,3.57293 0.62327,1.24023 1.02818,2.50747 1.21944,3.81661 0.096,0.65642 0.18945,2.2832 0.16148,2.80601 -0.0999,1.86485 -0.4903,3.34286 -1.34046,5.07608 -0.63231,1.28911 -1.44051,2.43436 -2.47801,3.51155 -1.41959,1.47388 -3.13912,2.63744 -4.96794,3.36165 -1.58691,0.62839 -3.20633,0.9439 -4.75085,0.92553 -0.27819,-0.004 -0.55997,-0.0125 -0.62617,-0.0207 z m 31.72059,-0.0777 c -0.0773,-0.008 -0.31198,-0.0358 -0.52166,-0.0597 -0.83775,-0.0951 -2.09164,-0.3188 -2.60828,-0.46506 -1.00982,-0.28591 -2.32776,-0.86219 -3.1816,-1.39122 -3.14456,-1.94827 -5.4257,-5.11832 -6.28524,-8.73449 -0.21333,-0.89744 -0.28924,-1.53155 -0.31225,-2.60827 -0.0303,-1.41356 0.0398,-1.96938 0.4622,-3.67165 0.24875,-1.00244 0.48293,-1.65586 0.90601,-2.52802 1.98045,-4.08266 5.90374,-6.91534 10.53763,-7.60836 0.70293,-0.1051 2.36213,-0.12873 3.02962,-0.0432 1.74109,0.22322 3.18403,0.66804 4.69487,1.4473 0.91645,0.47271 1.56606,0.89467 2.46784,1.60309 0.52912,0.41566 1.7955,1.69876 2.22437,2.25376 1.28764,1.66631 2.14378,3.47553 2.52554,5.33693 0.30464,1.48548 0.37235,3.54907 0.16271,4.95571 -0.59892,4.01748 -3.19912,7.66305 -7.01416,9.83409 -1.42553,0.81126 -3.1277,1.382 -4.78022,1.60283 -0.45434,0.0607 -2.00212,0.11193 -2.30732,0.0763 z M 94.9694,140.01694 c -1.66519,-0.17245 -3.22172,-0.84639 -4.31434,-1.86817 -0.50364,-0.47097 -1.22401,-1.30302 -1.55504,-1.79611 -1.11984,-1.66814 -1.46787,-3.9059 -0.93464,-6.00948 0.65438,-2.58146 2.38078,-4.69388 4.61391,-5.64563 1.05214,-0.44842 2.16913,-0.64698 3.44518,-0.61243 0.66826,0.0187 0.84105,0.0369 1.29301,0.14158 1.90631,0.44097 3.53914,1.52345 4.79314,3.17757 0.86694,1.14357 1.42776,2.517 1.58834,3.88968 0.12044,1.03032 0.0355,1.95605 -0.2619,2.85172 -0.54563,1.64327 -0.92651,2.37631 -1.68355,3.24016 -1.24879,1.425 -3.28358,2.42619 -5.31885,2.61707 -0.41353,0.0387 -1.3502,0.0466 -1.66526,0.0145 z m 94.14433,-0.15774 c -1.21178,-0.16458 -2.07957,-0.51727 -3.36957,-1.36966 -0.6056,-0.40013 -0.78251,-0.54212 -1.21081,-0.97175 -0.94188,-0.94478 -1.54961,-2.00916 -1.88694,-3.30477 -0.18303,-0.70336 -0.24406,-1.15177 -0.26819,-1.97417 -0.0326,-1.10821 0.0914,-1.99837 0.41438,-2.97574 0.66403,-2.00967 1.94605,-3.55408 3.68691,-4.44145 0.40721,-0.20759 1.5192,-0.61853 2.01895,-0.74611 1.63441,-0.4173 3.48935,-0.19361 5.16383,0.6227 2.61965,1.27708 4.33913,3.69466 4.55031,6.39764 0.052,0.66631 -0.004,1.93838 -0.10924,2.46783 -0.41819,2.10842 -1.76677,3.92922 -3.81905,5.15634 -1.54726,0.92514 -3.52984,1.36195 -5.17054,1.13914 z m -78.99631,-21.60467 c -1.82711,-0.17744 -3.54074,-0.65945 -5.13629,-1.44496 -1.16875,-0.57542 -2.16694,-1.24687 -3.0898,-2.07849 -0.77037,-0.69419 -1.6328,-1.73876 -2.14376,-2.5965 -0.32989,-0.55382 -1.19337,-2.36126 -1.40355,-2.93794 -0.29911,-0.8207 -0.53266,-1.8244 -0.65126,-2.79904 -0.0803,-0.65954 -0.0686,-2.35419 0.0207,-3.00955 0.49905,-3.66495 2.30896,-6.92052 5.14145,-9.2483 0.3536,-0.2906 1.16199,-0.8412 1.67883,-1.14349 1.50785,-0.88192 3.57721,-1.50825 5.52122,-1.67108 0.67932,-0.0569 2.14518,-0.0232 2.77122,0.0639 4.04729,0.56217 7.58888,2.72742 9.64978,5.89972 1.25367,1.92972 1.84694,3.49441 2.17571,5.73818 0.10198,0.69583 0.10115,2.80392 -0.002,3.49108 -0.25328,1.69897 -0.67127,3.0767 -1.33607,4.40386 -0.81775,1.63249 -1.68795,2.75029 -3.15618,4.05415 -1.07991,0.95903 -1.78526,1.44676 -2.85783,1.97611 -1.31465,0.64884 -2.56336,1.02946 -4.03279,1.22919 -0.66147,0.09 -2.53056,0.13328 -3.14999,0.0731 z m 63.36088,-0.14241 c -2.78963,-0.31122 -5.42865,-1.41194 -7.48374,-3.12137 -0.49088,-0.40833 -1.29143,-1.22241 -1.68277,-1.71125 -0.77933,-0.9735 -1.68785,-2.54478 -2.16967,-3.7525 -0.50015,-1.25371 -0.75396,-2.441 -0.84468,-3.95194 -0.1735,-2.89028 0.67976,-5.92659 2.39088,-8.50696 2.77989,-4.19209 7.24099,-6.28071 12.41831,-5.81404 2.61132,0.2354 5.32978,1.31163 7.28767,2.88515 1.31925,1.06028 2.28054,2.21416 3.32956,3.99659 0.76676,1.30284 1.28851,2.82162 1.54239,4.48992 0.11028,0.72449 0.15214,2.33222 0.0813,3.11422 -0.25264,2.78527 -1.28497,5.38538 -2.98552,7.51948 -0.40133,0.50369 -1.41015,1.51221 -1.91211,1.91154 -0.79883,0.63554 -1.88905,1.34102 -2.62832,1.70078 -1.20784,0.58773 -2.47456,0.97427 -3.89235,1.18764 -0.74336,0.11194 -2.65863,0.14116 -3.45093,0.0526 z M 71.59528,111.68757 c -1.22415,-0.10282 -2.47141,-0.60131 -3.37069,-1.34703 -1.15076,-0.95429 -1.74541,-1.71044 -2.16384,-2.75157 -0.61655,-1.5341 -0.65155,-3.25878 -0.0999,-4.92311 0.58266,-1.75794 1.7931,-3.17078 3.33013,-3.88688 0.44224,-0.20604 1.25996,-0.47839 1.77883,-0.59241 0.47608,-0.10468 1.36327,-0.14076 1.90706,-0.0776 2.15667,0.25072 4.19863,1.64775 5.3328,3.64846 0.72542,1.27968 1.01295,2.76303 0.79047,4.07831 -0.0856,0.50639 -0.48599,1.73484 -0.7269,2.23054 -1.15046,2.36713 -3.94344,3.8593 -6.77795,3.6211 z m 140.85977,-0.37179 c -0.86018,-0.1652 -1.86817,-0.5875 -2.54911,-1.06775 -0.38253,-0.2698 -1.09146,-0.97296 -1.42,-1.40842 -0.5084,-0.6739 -1.07575,-1.6888 -1.53648,-2.74853 -0.17723,-0.40779 -0.18572,-0.44388 -0.18531,-0.80253 0.002,-2.10654 0.99106,-4.34931 2.53026,-5.73674 1.23395,-1.11228 2.63154,-1.74461 4.2509,-1.92335 0.40182,-0.0443 0.44367,-0.0415 0.90288,0.0615 0.68737,0.15442 1.24153,0.34767 1.88597,0.65782 0.96975,0.46674 1.66721,0.96655 2.36888,1.69753 0.89787,0.93538 1.4456,1.96701 1.69035,3.18365 0.10531,0.52349 0.10613,2.32733 0.002,2.8425 -0.34078,1.67539 -1.25913,3.02689 -2.76093,4.06318 -0.74048,0.51095 -1.76478,0.94664 -2.6841,1.14169 -0.59951,0.12727 -1.92834,0.14821 -2.49473,0.0395 z M 46.53583,109.35933 c -0.97395,-0.10427 -1.85356,-0.52482 -2.46965,-1.181 -0.27618,-0.29415 -0.74163,-0.95797 -0.91088,-1.29907 -0.29298,-0.59045 -0.4052,-1.08915 -0.40638,-1.80575 -7.1e-4,-0.55632 0.064,-0.95999 0.23543,-1.464 0.48337,-1.42109 1.67012,-2.57172 3.02983,-2.9375 0.46749,-0.12582 1.6201,-0.13474 2.08661,-0.0165 1.68666,0.42829 2.97776,1.66535 3.3557,3.2152 0.13308,0.54609 0.0773,1.83418 -0.10882,2.51169 -0.3665,1.33396 -1.53626,2.41314 -3.05802,2.82121 -0.60324,0.16169 -1.2005,0.21473 -1.75388,0.15547 z m 191.80811,-0.49439 c -0.67711,-0.0286 -0.91762,-0.0721 -1.33162,-0.24049 -1.21202,-0.49326 -2.10863,-1.70474 -2.38995,-3.2293 -0.0972,-0.52702 -0.0873,-1.45361 0.0207,-1.9291 0.25828,-1.13731 0.81859,-1.95003 1.76515,-2.56035 0.5246,-0.33827 0.79209,-0.47228 1.19884,-0.60049 1.77489,-0.55963 3.95259,0.21992 4.945,1.77012 0.16935,0.2645 0.53446,1.07727 0.6456,1.43713 0.54399,1.76131 -0.48248,3.98196 -2.28554,4.94456 -0.50421,0.26918 -1.31121,0.46641 -1.80574,0.44129 -0.0773,-0.004 -0.42033,-0.0187 -0.76241,-0.0334 z M 126.52946,90.78132 c -1.14995,-0.0561 -2.4492,-0.29368 -3.65158,-0.66756 -2.72114,-0.84612 -5.2417,-2.64302 -6.80975,-4.85461 -0.15339,-0.21637 -0.37083,-0.54154 -0.48318,-0.72259 -0.28761,-0.46363 -1.10379,-2.13467 -1.28805,-2.63717 -0.32873,-0.8965 -0.56061,-1.85459 -0.69431,-2.86846 -0.0974,-0.73903 -0.0983,-2.52788 -0.002,-3.25032 0.57605,-4.30076 2.91757,-8.01232 6.36758,-10.09325 0.44502,-0.26843 1.39485,-0.73847 1.96622,-0.97301 1.77851,-0.73007 3.98315,-1.06224 6.03916,-0.90989 4.02711,0.29841 7.61822,2.17848 9.87293,5.1688 0.41596,0.55164 0.67342,0.97148 1.17589,1.91733 0.91615,1.72463 1.31977,2.98107 1.53866,4.7897 0.068,0.56178 0.0672,2.30423 -0.002,2.86909 -0.45998,3.78824 -2.26415,7.11496 -5.0621,9.33417 -1.1779,0.93424 -3.03861,1.91892 -4.41526,2.33655 -1.41845,0.4303 -3.06878,0.63372 -4.55319,0.56122 z m 31.56006,-0.078 c -0.55542,-0.0498 -1.26376,-0.15483 -1.86592,-0.27715 -4.229,-0.85911 -7.92467,-3.68368 -9.54018,-7.29152 -0.35751,-0.79839 -0.85801,-2.17529 -1.01039,-2.77952 -0.91742,-3.63864 -0.17432,-7.54094 2.06705,-10.85441 0.49793,-0.73612 0.96666,-1.29769 1.65866,-1.9872 0.99182,-0.98828 1.82934,-1.62335 2.9319,-2.2232 0.73362,-0.39915 1.23383,-0.6101 2.24773,-0.94801 1.11949,-0.37307 1.76211,-0.52032 2.90923,-0.66663 0.55285,-0.0705 2.10803,-0.0575 2.78884,0.0234 3.63017,0.43125 7,2.27407 9.18744,5.0243 0.43929,0.55231 1.10545,1.54807 1.422,2.12556 0.74868,1.36593 1.26076,3.03901 1.45411,4.75106 0.0776,0.68671 0.0669,2.33925 -0.0187,3.02961 -0.29022,2.31716 -1.04566,4.38516 -2.27923,6.2392 -0.73887,1.11049 -1.59252,2.05305 -2.56923,2.83681 -0.65199,0.5232 -1.04077,0.78293 -1.96622,1.31361 -1.4841,0.851 -2.84327,1.3282 -4.48525,1.57478 -0.54653,0.0821 -0.84803,0.10199 -1.70705,0.11256 -0.57382,0.008 -1.12457,0.006 -1.22388,-0.004 z M 94.38755,85.52808 c -1.08931,-0.16873 -2.35527,-0.71181 -3.29668,-1.41429 -0.44958,-0.33547 -1.18514,-1.04893 -1.53765,-1.49143 -0.81205,-1.01931 -1.36945,-2.19501 -1.63566,-3.45008 -0.0964,-0.45443 -0.10675,-0.58682 -0.10841,-1.38523 -0.003,-0.97309 0.0771,-1.63556 0.2851,-2.38758 0.214,-0.77369 0.62701,-1.64183 1.08686,-2.28459 0.32461,-0.45373 1.02642,-1.19458 1.47247,-1.55437 0.69661,-0.56191 1.69941,-1.1403 2.55025,-1.47092 0.74347,-0.28893 1.92483,-0.56565 2.62832,-0.6157 0.92379,-0.0657 2.83445,0.56548 4.03942,1.33441 2.11888,1.35215 3.55998,3.49381 4.00733,5.9555 0.0989,0.54412 0.1022,0.82358 0.0165,1.37683 -0.24521,1.58438 -0.90321,3.1291 -1.85783,4.36135 -0.32722,0.42241 -0.97668,1.09759 -1.35014,1.40357 -1.11938,0.91722 -2.46271,1.49202 -3.84059,1.64342 -0.54642,0.0601 -2.01755,0.0475 -2.45939,-0.021 z m 94.72029,-0.11795 c -0.0332,-0.006 -0.19568,-0.0332 -0.36115,-0.0589 -1.04796,-0.16458 -1.89719,-0.52875 -3.11508,-1.33614 -1.21681,-0.80665 -1.98502,-1.66777 -2.58481,-2.89739 -1.6716,-3.42682 -0.76026,-7.76568 2.09454,-9.97201 0.43563,-0.33665 0.89186,-0.61108 1.61907,-0.97379 0.84098,-0.41949 1.47276,-0.60722 2.46782,-0.73335 1.40749,-0.17847 3.12027,0.16665 4.53437,0.91323 1.93084,1.01949 3.37413,2.67029 4.00984,4.58633 0.28426,0.85679 0.34087,1.27793 0.34253,2.54808 0.002,1.23951 -0.0477,1.61222 -0.32134,2.43018 -0.94466,2.8235 -3.6413,4.99481 -6.77094,5.45184 -0.37684,0.0552 -1.70027,0.0841 -1.91485,0.0421 z M 66.33861,66.89213 c -1.05007,-0.21454 -1.99528,-0.73031 -2.8191,-1.53832 -2.05646,-2.01698 -2.00652,-5.85173 0.10364,-7.96191 0.37261,-0.37261 0.67299,-0.58257 1.35194,-0.945 0.97768,-0.5219 1.55246,-0.68088 2.46701,-0.68231 0.91312,-0.002 1.57038,0.15525 2.4277,0.57877 1.16213,0.57407 2.16879,1.55509 2.73695,2.66718 0.4224,0.82684 0.58433,1.48548 0.58622,2.38444 0.002,0.63194 -0.0275,0.80577 -0.27539,1.65353 -0.27743,0.94922 -0.66148,1.60785 -1.31816,2.26067 -0.82636,0.8215 -1.89294,1.36884 -3.08614,1.58371 -0.59387,0.10695 -1.64939,0.10654 -2.17468,-7.1e-4 z m 151.04275,-0.22469 c -0.60511,-0.10924 -1.17103,-0.33687 -2.01023,-0.80851 -1.5522,-0.8723 -2.53623,-2.59724 -2.61751,-4.58832 -0.0674,-1.65307 0.54408,-3.22319 1.65026,-4.23679 0.32654,-0.29921 1.06635,-0.81654 1.48889,-1.04115 2.02529,-1.07666 4.82945,-0.49644 6.58829,1.36318 0.78567,0.83069 1.25708,1.83321 1.37499,2.92409 0.0583,0.53883 0.0166,1.60092 -0.0833,2.09817 -0.41898,2.09748 -2.36645,3.87976 -4.66961,4.27352 -0.55236,0.0943 -1.25105,0.10074 -1.72184,0.0165 z m -74.80101,-8.46559 c -0.13247,-0.008 -0.70122,-0.0441 -1.26402,-0.081 l -1.02323,-0.0672 -0.38121,-0.19919 c -0.50809,-0.2655 -1.29199,-0.78455 -1.78568,-1.18238 -0.48585,-0.39152 -1.27504,-1.19677 -1.61031,-1.64312 -0.93835,-1.24911 -1.464,-2.57819 -1.57687,-3.98683 -0.0518,-0.64771 0.004,-1.845 0.11214,-2.39529 0.34515,-1.75883 1.40837,-3.4128 2.96866,-4.61813 1.30829,-1.01063 3.05185,-1.7149 4.67576,-1.88861 0.31611,-0.0338 0.40385,-0.0274 0.78247,0.058 2.55954,0.57718 4.4381,1.55995 5.5785,2.91836 0.3793,0.45183 0.57773,0.77231 0.99802,1.61195 0.59533,1.18932 0.80546,1.98666 0.84152,3.19354 0.0311,1.04228 -0.0823,1.83625 -0.39794,2.7854 -0.29511,0.88731 -0.70265,1.66067 -1.27782,2.42474 -0.76347,1.0142 -1.64803,1.73983 -2.88771,2.36886 -0.66158,0.33569 -1.13568,0.4987 -1.766,0.60721 -0.44837,0.0771 -1.44969,0.12437 -1.98631,0.0937 z m 35.22085,-7.80592 c -0.4018,-0.0466 -0.95621,-0.18055 -1.43373,-0.34613 -1.82517,-0.63277 -3.37932,-1.99959 -4.25183,-3.73933 -0.45766,-0.91256 -0.66527,-1.7299 -0.69394,-2.73197 -0.0302,-1.0616 0.12065,-1.75006 0.66125,-3.01448 0.82609,-1.93219 2.42662,-3.19885 4.63913,-3.67146 0.65968,-0.14095 1.86704,-0.17806 2.54653,-0.0784 1.21723,0.17847 2.2813,0.59982 3.17595,1.25748 0.41517,0.30519 1.02364,0.93493 1.31523,1.36112 0.29875,0.4367 0.89288,1.60801 1.0322,2.03493 0.76858,2.35548 0.008,5.02942 -1.99572,7.01175 -0.79582,0.78749 -1.90484,1.48529 -2.88332,1.81414 -0.38563,0.12955 -1.43862,0.18075 -2.11175,0.10239 z m -71.55607,-0.056 c -0.7145,-0.13452 -1.47353,-0.41891 -2.05601,-0.77046 -0.71871,-0.43376 -1.70617,-1.31732 -2.18859,-1.9583 -0.26382,-0.35054 -0.73178,-1.28398 -0.89005,-1.77543 -0.24137,-0.74931 -0.30179,-1.18123 -0.30179,-2.15706 0,-0.76031 0.0125,-0.94589 0.0918,-1.33758 0.18718,-0.92808 0.57189,-1.86794 1.07188,-2.61897 0.31813,-0.47788 0.92271,-1.11952 1.37393,-1.45817 0.40738,-0.30576 1.3561,-0.85429 1.77533,-1.0265 1.90865,-0.78398 4.20723,-0.50442 6.09685,0.74151 1.89143,1.24715 3.00483,3.09012 3.15252,5.2182 0.0296,0.42602 -0.0667,1.51573 -0.17868,2.02417 -0.32921,1.49347 -1.26134,2.85136 -2.63454,3.83799 -0.45026,0.32346 -1.43216,0.8171 -1.98194,0.99636 -0.80104,0.26119 -1.16507,0.31708 -2.1468,0.32963 -0.63348,0.008 -0.96782,-0.004 -1.18377,-0.0455 z m -11.81745,-24.058 c -0.44103,-0.058 -0.79704,-0.16002 -1.19659,-0.3433 -0.21769,-0.0997 -0.44354,-0.19962 -0.50192,-0.22176 -0.24656,-0.0937 -0.78271,-0.49857 -1.07733,-0.81348 -0.68324,-0.73027 -1.03973,-1.65504 -1.08438,-2.81303 -0.069,-1.79029 0.81537,-3.41755 2.25053,-4.14104 0.34336,-0.17309 1.12347,-0.43289 1.49322,-0.49727 0.37833,-0.066 1.24208,-0.0257 1.62124,0.0756 0.9632,0.25705 1.93612,0.9067 2.53216,1.69078 0.27764,0.36528 0.61741,1.07127 0.72556,1.50765 0.0777,0.31394 0.0895,0.46868 0.09,1.18375 6e-4,0.88693 -0.0311,1.10059 -0.24342,1.63934 -0.20127,0.51084 -0.45271,0.88515 -0.89732,1.33566 -0.80575,0.81643 -1.76601,1.2858 -2.86023,1.39808 -0.43985,0.0452 -0.50172,0.0449 -0.85154,-7e-4 z m 96.14481,-0.22664 c -0.38608,-0.0503 -1.2755,-0.22944 -1.48281,-0.29853 -1.33998,-0.44662 -2.33251,-1.71411 -2.61534,-3.33993 -0.0877,-0.50391 -0.0562,-1.56193 0.0593,-1.99176 0.3319,-1.23598 1.05177,-2.15594 2.05264,-2.62311 0.89049,-0.41565 1.52378,-0.58489 2.19344,-0.58619 0.76024,-0.002 1.36212,0.16561 2.01885,0.56026 1.25718,0.75559 2.25087,2.21239 2.58697,3.79267 l 0.0682,0.32102 -0.12498,0.38121 c -0.52256,1.59407 -1.65346,2.95562 -2.8804,3.46786 -0.63771,0.26625 -1.34561,0.38568 -1.87587,0.3165 z m -48.67431,-2.80033 c -1.24517,-0.19898 -2.13512,-0.65219 -3.03402,-1.54472 -0.73822,-0.73295 -1.1566,-1.45826 -1.40227,-2.43096 -0.49024,-1.94119 0.0145,-3.99792 1.34288,-5.4642 0.88077,-0.97269 2.6989,-1.7796 4.00143,-1.77585 0.3639,7.1e-4 1.00096,0.0989 1.39928,0.21502 0.98407,0.28677 1.80642,0.78558 2.58821,1.56993 0.46911,0.47061 0.78346,0.89787 1.08384,1.47302 0.41562,0.79586 0.62327,1.60875 0.62431,2.44386 7e-4,0.90848 -0.12851,1.37077 -0.74949,2.67149 -0.27467,0.57538 -0.90085,1.32226 -1.4597,1.74106 -0.3176,0.23797 -0.87878,0.55246 -1.28186,0.71835 -0.91835,0.37792 -2.17636,0.53272 -3.11261,0.383 z"
       style="display:inline;opacity:0.05;fill:url(#linearGradient3367);stroke-width:0.040127;fill-opacity:1;stroke:none" />
    <text
       xml:space="preserve"
       id="text2187"
       style="font-size:7.86222px;line-height:1.25;font-family:sans-serif;letter-spacing:0.101723px;white-space:pre;shape-inside:url(#rect2189);fill:#1d276b;fill-opacity:1"
       transform="matrix(1.8845397,0,0,1.8845397,-235.9989,-218.98324)"><tspan
         style="font-style:normal;font-variant:normal;font-weight:bold;font-stretch:normal;font-size:7.86222px;font-family:'Code Bold';-inkscape-font-specification:'Code Bold,  Bold';fill:#1d276b;fill-opacity:1"
         id="tspan2314">CERTIFICADO DE PARTICIPAÇÃO</tspan></text>
    <g
       id="g2280"
       transform="translate(-10.723028,151.78786)">
      <rect
         style="display:inline;opacity:0.8;fill:#1a237e;fill-opacity:1;stroke-width:0.274532;filter:url(#filter1271)"
         id="rect1247"
         width="153.96817"
         height="285.75"
         x="-164.08426"
         y="-285.75"
         ry="1.5677809"
         inkscape:label="terminal-bg-shadow"
         transform="matrix(0,-0.17090043,-0.15818485,0,235.63594,17.170679)" />
      <rect
         style="fill:url(#linearGradient1294);fill-opacity:1;stroke-width:0.0456422"
         id="rect944"
         width="26.903744"
         height="45.201321"
         x="-45.212749"
         y="-280.83725"
         ry="0.6151666"
         inkscape:label="terminal-bg"
         transform="matrix(0,-1,-1,0,0,0)" />
      <path
         id="path1274"
         style="display:inline;fill:#e6e8fa;fill-opacity:1;stroke:none;stroke-width:26.9336;stroke-miterlimit:4;stroke-dasharray:none;stroke-opacity:1;filter:url(#filter1286)"
         d="m 100.54688,305.06641 c -1.978576,0 -3.572271,1.59174 -3.572271,3.57031 v 29.47266 c 0,0.21447 0.02661,0.42112 0.0625,0.625 H 982.93555 v 0.15234 c 0.0555,-0.25101 0.0898,-0.50916 0.0898,-0.77734 v -29.47266 c 0,-1.97857 -1.59368,-3.57031 -3.57227,-3.57031 z"
         transform="matrix(0.05101437,0,0,0.05101437,230.68884,1.69262)"
         inkscape:label="header-shadow" />
      <path
         id="rect946"
         style="fill:#e8eaf6;fill-opacity:1;stroke:none;stroke-width:1.374;stroke-miterlimit:4;stroke-dasharray:none;stroke-opacity:1"
         d="m 235.81818,17.255391 c -0.10094,0 -0.18224,0.0812 -0.18224,0.182137 v 1.503529 c 0,0.01094 0.001,0.02148 0.003,0.03188 h 45.19355 v 0.0078 c 0.003,-0.01281 0.005,-0.02598 0.005,-0.03966 v -1.503529 c 0,-0.100936 -0.0813,-0.182137 -0.18224,-0.182137 z"
         inkscape:label="header" />
      <circle
         style="fill:#9fa8da;fill-opacity:1;stroke:none;stroke-width:1.10729;stroke-miterlimit:4;stroke-dasharray:none;stroke-opacity:1"
         id="path950"
         cx="236.65237"
         cy="18.185055"
         r="0.35874063" />
      <circle
         style="fill:#9fa8da;fill-opacity:1;stroke:none;stroke-width:1.10729;stroke-miterlimit:4;stroke-dasharray:none;stroke-opacity:1"
         id="circle952"
         cx="237.87807"
         cy="18.185055"
         r="0.35874063" />
      <circle
         style="fill:#9fa8da;fill-opacity:1;stroke:none;stroke-width:1.10729;stroke-miterlimit:4;stroke-dasharray:none;stroke-opacity:1"
         id="circle954"
         cx="239.10376"
         cy="18.185055"
         r="0.35874063" />
      <text
         xml:space="preserve"
         id="text2740"
         style="font-style:normal;font-weight:normal;font-size:10.5833px;line-height:1.25;font-family:sans-serif;text-align:center;letter-spacing:1.91578px;word-spacing:0px;white-space:pre;shape-inside:url(#rect2742);fill:#ffffff;fill-opacity:1;stroke:none"
         transform="matrix(0.89675407,0,0,0.89675407,204.93139,-35.955424)"
         inkscape:label="cardano"
         x="26.492472"
         y="0"><tspan
           x="35.645279"
           y="74.641197"
           id="tspan85"><tspan
             style="font-style:normal;font-variant:normal;font-weight:normal;font-stretch:normal;font-family:'Questa Sans';-inkscape-font-specification:'Questa Sans';text-align:center;text-anchor:middle;fill:#e8eaf6;fill-opacity:1"
             id="tspan83">cardano</tspan></tspan></text>
      <rect
         style="opacity:0.75;fill:url(#linearGradient1305);fill-opacity:1;stroke-width:0.0662221"
         id="rect853"
         width="41.433151"
         height="7.1318712"
         x="237.52002"
         y="32.791985"
         ry="0.49583703"
         inkscape:label="gree-rect" />
      <text
         xml:space="preserve"
         id="text2768"
         style="font-style:normal;font-weight:normal;font-size:10.5833px;line-height:1.25;font-family:sans-serif;letter-spacing:0px;word-spacing:0px;white-space:pre;shape-inside:url(#rect2770);fill:#fff176;fill-opacity:1;stroke:none"
         transform="matrix(0.45696779,0,0,0.45696779,222.70776,3.9464967)"
         inkscape:label="devs :: br"
         x="66.769836"
         y="0"><tspan
           x="33.336388"
           y="74.641197"
           id="tspan91"><tspan
             style="font-style:normal;font-variant:normal;font-weight:600;font-stretch:normal;font-family:'Source Code Pro';-inkscape-font-specification:'Source Code Pro Semi-Bold';text-align:center;text-anchor:middle;fill:#fff176;fill-opacity:1"
             id="tspan89">devs :: brazil</tspan></tspan></text>
    </g>
    <text
       xml:space="preserve"
       id="text2196"
       style="font-size:25.6802px;line-height:1.25;font-family:sans-serif;letter-spacing:0px;word-spacing:-2.64583px;white-space:pre;shape-inside:url(#rect2198);fill:#222d4e;fill-opacity:1"
       transform="matrix(0.32969659,0,0,0.32969659,-38.449555,28.092459)"
       x="466.7182"
       y="0"><tspan
         x="198.52341"
         y="176.45761"
         id="tspan2194"
         style="font-style:normal;font-variant:normal;font-weight:normal;font-stretch:normal;font-size:25.6802px;font-family:'Source Code Pro';-inkscape-font-specification:'Source Code Pro';text-align:center;text-anchor:middle;fill:#222d4e;fill-opacity:1">Certificamos que <tspan
   style="font-style:italic;font-variant:normal;font-weight:bold;font-stretch:normal;font-size:25.6802px;font-family:'Source Code Pro';-inkscape-font-specification:'Source Code Pro Bold Italic';text-align:center;text-anchor:middle;fill:#222d4e;fill-opacity:1"
   id="tspan2202">[name]</tspan> participou do <tspan
   style="font-weight:bold;font-size:25.6802px;text-align:center;text-anchor:middle;fill:#222d4e;fill-opacity:1"
   id="tspan2207">1º MEETUP – COMO SE TORNAR UM DESENVOLVEDOR CARDANO</tspan> realizado no dia <tspan
   style="font-weight:bold;fill:#222d4e;fill-opacity:1"
   id="tspan2294">19 de novembro de 2020,</tspan> organizado pelo grupo <tspan
   style="font-style:normal;font-weight:bold;font-size:25.6802px;text-align:center;text-anchor:middle;fill:#222d4e;fill-opacity:1"
   id="tspan2213">Cardano Developers Brazil</tspan>.</tspan></text>
    <g
       id="g3401"
       transform="translate(10.708817,-19.814566)">
      <g
         id="g2534">
        <text
           xml:space="preserve"
           id="text2324"
           style="font-size:3.52778px;line-height:1.25;font-family:sans-serif;letter-spacing:0px;white-space:pre;shape-inside:url(#rect2326);fill:#0f429c;fill-opacity:1"
           transform="translate(-87.389901,28.712617)"><tspan
             sodipodi:role="line"
             id="tspan2322"
             style="font-style:normal;font-variant:normal;font-weight:normal;font-stretch:normal;font-size:3.52778px;font-family:'Source Code Pro';-inkscape-font-specification:'Source Code Pro';fill:#0f429c;fill-opacity:1">t.me/<tspan
   style="font-weight:bold"
   id="tspan2330">CardanoDevelopersBrazil</tspan></tspan></text>
        <g
           id="g2525">
          <g
             id="g2374"
             transform="translate(-74.055565,11.516671)">
            <circle
               style="opacity:1;vector-effect:none;fill:#172c87;fill-opacity:1;stroke-width:1.00926;stroke-linecap:butt;stroke-linejoin:miter;stroke-miterlimit:4;stroke-dasharray:none;stroke-dashoffset:0;stroke-opacity:1;stop-color:#000000;stop-opacity:1"
               id="circle2370"
               cx="103.33331"
               cy="182.59196"
               r="2.3919799" />
          </g>
          <path
             style="fill:#ffffff;stroke-width:0.0063911"
             d="m 30.118766,195.57757 c -0.0299,-0.0111 -0.12813,-0.0798 -0.42103,-0.29432 l -0.38199,-0.27981 -0.0583,0.0571 c -0.0321,0.0314 -0.12388,0.11963 -0.20404,0.19609 -0.14658,0.13985 -0.1694,0.15685 -0.22335,0.16634 -0.0214,0.004 -0.024,0.003 -0.024,-0.009 0,-0.007 0.0116,-0.17794 0.0257,-0.37896 l 0.0257,-0.36549 0.0302,-0.0288 c 0.0166,-0.0158 0.16972,-0.15392 0.3402,-0.30688 0.90755,-0.81421 1.04179,-0.93582 1.04534,-0.94697 0.009,-0.0286 -0.0372,-0.0409 -0.0824,-0.022 -0.0115,0.005 -0.41046,0.2526 -0.88656,0.55066 -0.4761,0.29806 -0.86995,0.54163 -0.87522,0.54127 -0.0209,-0.002 -0.75917,-0.23402 -0.7861,-0.24768 -0.0323,-0.0164 -0.0603,-0.0437 -0.0669,-0.0654 -0.0118,-0.0389 0.0335,-0.0937 0.10576,-0.12791 0.0225,-0.0107 0.50833,-0.19827 1.07954,-0.41688 0.5712,-0.21861 1.22981,-0.47079 1.46356,-0.5604 0.31382,-0.12031 0.43461,-0.16384 0.46172,-0.16642 0.0648,-0.006 0.11446,0.0224 0.14119,0.0813 0.029,0.064 0.0345,0.0334 -0.23164,1.27822 -0.13416,0.62745 -0.24951,1.16452 -0.25634,1.19349 -0.034,0.14427 -0.10734,0.19492 -0.22107,0.15263 z"
             id="path2368" />
        </g>
      </g>
      <g
         id="g2458">
        <text
           xml:space="preserve"
           id="text2442"
           style="font-size:3.52778px;line-height:1.25;font-family:sans-serif;letter-spacing:0px;white-space:pre;shape-inside:url(#rect2450);fill:#0f429c;fill-opacity:1"
           transform="translate(-87.389901,12.814886)"><tspan
             sodipodi:role="line"
             id="tspan2440"
             style="font-style:normal;font-variant:normal;font-weight:normal;font-stretch:normal;font-size:3.52778px;font-family:'Source Code Pro';-inkscape-font-specification:'Source Code Pro';fill:#0f429c;fill-opacity:1">meetup.com/pt-BR/<tspan
   style="font-weight:bold"
   id="tspan2438">cardano-developers-brazil</tspan>/events/274354208/</tspan></text>
        <g
           id="g2448"
           transform="translate(-74.055565,-4.3440183)">
          <circle
             style="opacity:1;vector-effect:none;fill:#172c87;fill-opacity:1;stroke-width:1.00926;stroke-linecap:butt;stroke-linejoin:miter;stroke-miterlimit:4;stroke-dasharray:none;stroke-dashoffset:0;stroke-opacity:1;stop-color:#000000;stop-opacity:1"
             id="circle2444"
             cx="103.33331"
             cy="182.59196"
             r="2.3919799" />
          <path
             style="fill:#ffffff;fill-opacity:1;stroke-width:0.00640471"
             d="m 104.53565,183.96164 c -0.0833,-0.007 -0.2041,-0.0288 -0.26579,-0.0479 -0.0927,-0.0287 -0.20421,-0.10876 -0.27617,-0.19827 -0.0493,-0.0613 -0.0998,-0.15972 -0.11856,-0.23114 -0.0162,-0.0614 -0.0195,-0.19021 -0.006,-0.24857 0.0174,-0.0778 0.0917,-0.2462 0.28572,-0.64809 0.19968,-0.41352 0.22114,-0.46492 0.22107,-0.52952 -7e-5,-0.077 -0.027,-0.11429 -0.086,-0.11919 -0.0436,-0.004 -0.0732,0.0121 -0.12597,0.067 -0.0304,0.0316 -0.0519,0.0681 -0.13989,0.23766 -0.0572,0.11019 -0.20772,0.40993 -0.3345,0.66609 -0.13684,0.27648 -0.24119,0.47962 -0.25678,0.49988 -0.0952,0.12373 -0.27877,0.15769 -0.37465,0.0693 -0.0427,-0.0394 -0.0604,-0.0795 -0.0639,-0.14504 -0.004,-0.0658 -0.008,-0.0514 0.14956,-0.45356 0.20814,-0.53037 0.22352,-0.57569 0.22314,-0.65771 -2.5e-4,-0.0499 -0.003,-0.0621 -0.0177,-0.0912 -0.0241,-0.0464 -0.0572,-0.0676 -0.11114,-0.071 -0.05,-0.003 -0.0872,0.009 -0.11608,0.0391 -0.0134,0.0139 -0.0342,0.0547 -0.0619,0.12198 -0.0564,0.13682 -0.20271,0.51752 -0.30414,0.79115 -0.22068,0.59534 -0.28613,0.71874 -0.40814,0.76953 -0.075,0.0312 -0.12767,0.0401 -0.21677,0.0367 -0.0617,-0.002 -0.0874,-0.007 -0.13035,-0.0209 -0.11195,-0.0375 -0.20449,-0.11711 -0.25726,-0.22133 -0.0388,-0.0766 -0.0467,-0.11634 -0.0428,-0.21397 0.004,-0.0935 0.013,-0.13429 0.0749,-0.33304 0.0209,-0.0669 0.0887,-0.29029 0.15081,-0.49637 0.17327,-0.57528 0.23045,-0.74304 0.29828,-0.87511 0.042,-0.0817 0.0777,-0.13127 0.12974,-0.17996 0.10159,-0.095 0.26478,-0.15666 0.38828,-0.14662 0.0955,0.008 0.1635,0.0321 0.3077,0.11009 0.14763,0.0799 0.1849,0.088 0.24864,0.054 0.0199,-0.0106 0.0751,-0.0525 0.12259,-0.0932 0.18359,-0.15696 0.26545,-0.1943 0.39606,-0.18064 0.0871,0.009 0.16474,0.0423 0.30098,0.12875 0.10276,0.0652 0.11693,0.0672 0.20018,0.0277 0.0601,-0.0285 0.12003,-0.0392 0.19118,-0.034 0.19031,0.0138 0.31851,0.10654 0.37418,0.27081 0.062,0.18285 0.03,0.31352 -0.21999,0.89899 -0.24157,0.56573 -0.29866,0.76008 -0.26805,0.9125 0.0207,0.10325 0.10213,0.14741 0.30169,0.16368 0.0848,0.007 0.16425,0.0294 0.20755,0.0586 0.0756,0.0511 0.0832,0.18556 0.0134,0.23799 -0.034,0.0256 -0.0981,0.0551 -0.14096,0.0649 -0.0519,0.0119 -0.16468,0.0166 -0.24178,0.0101 z"
             id="path2446" />
        </g>
      </g>
      <g
         id="g2520"
         transform="translate(0,-0.2666554)">
        <text
           xml:space="preserve"
           id="text2316"
           style="font-size:3.52778px;line-height:1.25;font-family:sans-serif;letter-spacing:0px;white-space:pre;shape-inside:url(#rect2318);fill:#0f429c;fill-opacity:1"
           transform="translate(-87.389901,21.011893)"><tspan
             sodipodi:role="line"
             id="tspan2320"
             style="font-style:normal;font-variant:normal;font-weight:normal;font-stretch:normal;font-size:3.52778px;font-family:'Source Code Pro';-inkscape-font-specification:'Source Code Pro';fill:#0f429c;fill-opacity:1">youtu.be/<tspan
   style="font-weight:bold"
   id="tspan2460">ec0Oe5DzLsY</tspan></tspan></text>
        <g
           id="g2512">
          <circle
             style="vector-effect:none;fill:#172c87;fill-opacity:1;stroke-width:1.00926;stroke-linecap:butt;stroke-linejoin:miter;stroke-miterlimit:4;stroke-dasharray:none;stroke-dashoffset:0;stroke-opacity:1;stop-color:#000000"
             id="path2348"
             cx="29.277748"
             cy="186.44495"
             r="2.3919799" />
          <path
             style="fill:#ffffff;stroke-width:0.00510974"
             d="m 29.124677,187.67748 c -0.537523,-0.004 -1.022861,-0.0308 -1.195685,-0.0661 -0.164378,-0.0334 -0.297001,-0.15746 -0.342535,-0.32031 -0.05319,-0.19023 -0.08337,-0.68767 -0.06624,-1.09193 0.0125,-0.2961 0.03949,-0.52277 0.07475,-0.62849 0.03575,-0.10713 0.113721,-0.19786 0.217266,-0.25258 0.05471,-0.0289 0.09706,-0.0411 0.185735,-0.0538 0.431261,-0.061 1.740993,-0.0711 2.368372,-0.0181 0.206101,0.0174 0.301694,0.0354 0.369583,0.0695 0.12132,0.061 0.201456,0.16163 0.235396,0.29562 0.06503,0.25679 0.08796,0.8367 0.05131,1.29785 -0.02094,0.26327 -0.05086,0.41001 -0.101156,0.49563 -0.0484,0.0824 -0.13677,0.15636 -0.225235,0.18837 -0.125632,0.0455 -0.512671,0.0739 -1.091265,0.0799 -0.136307,9.9e-4 -0.268517,0.003 -0.293811,0.004 -0.02529,6.9e-4 -0.109224,6.9e-4 -0.186505,1.4e-4 z m 0.260712,-0.96795 c 0.25006,-0.14371 0.454584,-0.26271 0.454499,-0.26443 -7.7e-5,-0.001 -0.0501,-0.0317 -0.111136,-0.0668 -0.06105,-0.035 -0.263892,-0.15192 -0.450782,-0.2599 -0.18689,-0.10801 -0.342672,-0.19745 -0.346187,-0.19885 -0.0051,-10e-4 -0.0063,0.105 -0.0063,0.52434 0,0.28976 0.0012,0.52684 0.0027,0.52684 0.0014,0 0.207264,-0.11757 0.457323,-0.26129 z"
             id="path2506" />
        </g>
      </g>
    </g>
    <rect
       transform="rotate(90)"
       inkscape:label="bg"
       ry="0"
       y="30.63765"
       x="-60.687912"
       height="54.241577"
       width="31.575872"
       id="rect3373"
       style="display:inline;fill:url(#linearGradient3375);fill-opacity:1;stroke-width:0.0541661" />
    <path
       style="opacity:0.85;fill:none;stroke:url(#linearGradient3409);stroke-width:1;stroke-linecap:round;stroke-linejoin:round;stroke-miterlimit:4;stroke-dasharray:none;stroke-opacity:1"
       d="m 27.385768,177.18605 v 19.31456 h 90.450362"
       id="path3377" />
    <path
       style="opacity:0.85;fill:none;stroke:url(#linearGradient3413);stroke-width:1;stroke-linecap:round;stroke-linejoin:round;stroke-miterlimit:4;stroke-dasharray:none;stroke-opacity:1"
       d="M 270.47155,36.302049 V 16.987489 H 180.02119"
       id="path3411" />
    <rect
       transform="rotate(77.633698)"
       inkscape:label="bg"
       ry="0"
       y="-630.31464"
       x="122.62807"
       height="139.34419"
       width="125.59544"
       id="rect3415"
       style="display:inline;fill:url(#linearGradient3417);fill-opacity:1;stroke-width:0.173147" />
    <rect
       transform="rotate(110.51659)"
       inkscape:label="bg"
       ry="0"
       y="-524.64539"
       x="-356.55334"
       height="139.34419"
       width="125.59544"
       id="rect3419"
       style="display:inline;fill:url(#linearGradient3421);fill-opacity:1;stroke-width:0.173147" />
    <rect
       transform="rotate(58.988314)"
       inkscape:label="bg"
       ry="0"
       y="-415.00589"
       x="186.35039"
       height="139.34419"
       width="125.59544"
       id="rect3423"
       style="display:inline;fill:url(#linearGradient3425);fill-opacity:1;stroke-width:0.173147" />
    <g
       id="g3451"
       transform="translate(9.7284704,2.997569)">
      <rect
         transform="rotate(90)"
         inkscape:label="bg"
         ry="0"
         y="-19.145538"
         x="12.288692"
         height="4.2100682"
         width="4.2100687"
         id="rect3427"
         style="display:inline;fill:url(#linearGradient3445);fill-opacity:1;stroke-width:0.00551029" />
      <rect
         transform="rotate(60)"
         inkscape:label="bg"
         ry="0"
         y="-15.217376"
         x="18.299168"
         height="4.2100682"
         width="4.2100687"
         id="rect3433"
         style="display:inline;fill:url(#linearGradient3435);fill-opacity:1;stroke-width:0.00551029" />
      <rect
         transform="rotate(90)"
         inkscape:label="bg"
         ry="0"
         y="-14.67168"
         x="12.288692"
         height="4.2100682"
         width="4.2100687"
         id="rect3437"
         style="display:inline;fill:url(#linearGradient3439);fill-opacity:1;stroke-width:0.00551029" />
      <rect
         transform="rotate(90)"
         inkscape:label="bg"
         ry="0"
         y="-19.145538"
         x="12.288692"
         height="4.2100682"
         width="4.2100687"
         id="rect3441"
         style="display:inline;fill:url(#linearGradient3429);fill-opacity:1;stroke-width:0.00551029" />
    </g>
  </g>
</svg>
